<mxfile host="app.diagrams.net" modified="2022-08-01T05:27:11.858Z" agent="5.0 (Macintosh; Intel Mac OS X 10_15_7) AppleWebKit/605.1.15 (KHTML, like Gecko) Version/15.5 Safari/605.1.15" etag="2JefPEsexPJe_zSru8HA" version="20.2.2" type="github">
  <diagram id="CmJwCziyw1J_SLCEKvTh" name="Page-1">
    <mxGraphModel dx="946" dy="535" grid="1" gridSize="10" guides="1" tooltips="1" connect="1" arrows="1" fold="1" page="1" pageScale="1" pageWidth="827" pageHeight="1169" math="0" shadow="0">
      <root>
        <mxCell id="0" />
        <mxCell id="1" parent="0" />
      </root>
    </mxGraphModel>
  </diagram>
</mxfile>
